<svg xmlns="http://www.w3.org/2000/svg" viewBox="0 0 128 128">
  <rect x="7" y="7" width="114" height="114" rx="30" fill="#007A61"/>
  <path d="M40 31h25l8 11h18c6 0 11 5 11 11v14H85V57H60c-7 0-13 6-13 13v19c0 7 6 13 13 13h25v10H58c-16 0-29-13-29-29V45c0-8 5-14 11-14Z" fill="#D8F2E6"/>
  <path d="M37 69h43c6 0 10 5 10 10v1" fill="none" stroke="#FCFDFB" stroke-linecap="round" stroke-width="8"/>
  <path d="M58 70c0 11 9 19 20 19h9" fill="none" stroke="#D8F2E6" stroke-linecap="round" stroke-width="5"/>
  <circle cx="96" cy="80" r="7" fill="#FCFDFB"/>
  <circle cx="86" cy="89" r="6" fill="#F2C66D"/>
</svg>
